# xmcd
#
# Track frame offsets:
#	182
#	18782
#	33952
#	53787
#	69227
#	84350
#	107565
#	120667
#	136580
#	153980
#	169520
#	182065
#	203097
#	219167
#
# Disc length: 3177 seconds
#
# Revision: 0
# Processed by: cddbd v1.5.2PL0 Copyright (c) Steve Scherf et al.
# Submitted via: EasyCDDAExtractor 12.0.0.1
#
DISCID=a20c670e
DTITLE=Noël Deschamps - C'est pas ça la vie
DYEAR=1998
DGENRE=Blues
TTITLE0=Joue ta chance
TTITLE1=C'est pas ça la vie
TTITLE2=L'artiste
TTITLE3=Nobody loves her (Personne ne m'aime)
TTITLE4=Ca existe
TTITLE5=Quoique je fasse de mas vie
TTITLE6=Protège-moi
TTITLE7=Tire-toi, tu m'files le blues
TTITLE8=Sophie
TTITLE9=Attention ma biche
TTITLE10=Mister Luther Kink (I have a dream)
TTITLE11=J'ai la pêche
TTITLE12=J'hallucine (Sur la musique de James brown)
TTITLE13=Joue ta chance (Instrumentale)
EXTD=
EXTT0=
EXTT1=
EXTT2=
EXTT3=
EXTT4=
EXTT5=
EXTT6=
EXTT7=
EXTT8=
EXTT9=
EXTT10=
EXTT11=
EXTT12=
EXTT13=
PLAYORDER=
